<?xml version="1.0" encoding="UTF-8" standalone="no"?>
<svg width="208px" height="39px" viewBox="0 0 208 39" version="1.1" xmlns="http://www.w3.org/2000/svg" xmlns:xlink="http://www.w3.org/1999/xlink">
    <!-- Generator: Sketch 3.8.3 (29802) - http://www.bohemiancoding.com/sketch -->
    <title>logo</title>
    <desc>Created with Sketch.</desc>
    <defs></defs>
    <g id="Home-Page" stroke="none" stroke-width="1" fill="none" fill-rule="evenodd">
        <g id="Home-page--1200" transform="translate(-119.000000, -26.000000)">
            <g id="Nav" transform="translate(119.000000, 26.000000)">
                <g id="logo">
                    <path d="M20.8732958,23.4183655 L20.8732958,27.2366754 L4.5999756,27.2366754 C2.05264846,27.2366754 0,25.1865666 0,22.6389573 L0,11.3194786 C0,8.7721515 2.05264846,6.71837428 4.5999756,6.71837428 L20.8016196,6.71837428 L20.8016196,10.5400705 L4.5999756,10.5400705 C4.17669093,10.5400705 3.82169619,10.8928077 3.82169619,11.3194786 L3.82169619,22.6389573 C3.82169619,23.0644995 4.17669093,23.4183655 4.5999756,23.4183655 L20.8732958,23.4183655 Z" id="Fill-1" fill="#000000"></path>
                    <path d="M64.3768011,23.4183655 C64.8000857,23.4183655 65.1562092,23.0644995 65.1562092,22.6389573 L65.1562092,11.3194786 C65.1562092,10.8928077 64.8000857,10.5400705 64.3768011,10.5400705 L52.7011989,10.5400705 C52.279043,10.5400705 51.925177,10.8928077 51.925177,11.3194786 L51.925177,22.6389573 C51.925177,23.0644995 52.279043,23.4183655 52.7011989,23.4183655 L64.3768011,23.4183655 Z M68.9745191,0 L68.9745191,27.2366754 L52.7011989,27.2366754 C50.1558471,27.2366754 48.1012233,25.1865666 48.1012233,22.6389573 L48.1012233,11.3194786 C48.1012233,8.7721515 50.1558471,6.71837428 52.7011989,6.71837428 L65.1562092,6.71837428 L65.1562092,0 L68.9745191,0 Z" id="Fill-3" fill="#000000"></path>
                    <path d="M92.796416,6.71837428 L92.796416,22.6389573 C92.796416,25.1865666 90.7448963,27.2366754 88.1964404,27.2366754 L76.5208382,27.2366754 C73.9746399,27.2366754 71.9231202,25.1865666 71.9231202,22.6389573 L71.9231202,6.71837428 L75.7436876,6.71837428 L75.7436876,22.6389573 C75.7436876,23.0656282 76.0986823,23.4183655 76.5208382,23.4183655 L88.1964404,23.4183655 C88.6231113,23.4183655 88.973591,23.0656282 88.973591,22.6389573 L88.973591,6.71837428 L92.796416,6.71837428 Z" id="Fill-5" fill="#000000"></path>
                    <path d="M112.548572,6.71837428 L112.548572,10.5400705 L101.085741,10.5400705 C100.662456,10.5400705 100.309719,10.8928077 100.309719,11.3194786 L100.309719,27.2366754 L96.4891514,27.2366754 L96.4891514,11.3194786 C96.4891514,8.7721515 98.5415177,6.71837428 101.085741,6.71837428 L112.548572,6.71837428 Z" id="Fill-7" fill="#000000"></path>
                    <path d="M131.841041,18.886962 L118.610008,18.886962 L118.610008,22.6389573 C118.610008,23.0656282 118.962746,23.4183655 119.38603,23.4183655 L131.841041,23.4183655 L131.841041,18.886962 Z M135.662737,11.3194786 L135.662737,27.2366754 L119.38603,27.2366754 C116.839832,27.2366754 114.788594,25.1865666 114.788594,22.6389573 L114.788594,15.0672411 L131.841041,15.0672411 L131.841041,11.3194786 C131.841041,10.8928077 131.484917,10.5400705 131.061632,10.5400705 L114.788594,10.5400705 L114.788594,6.71837428 L131.061632,6.71837428 C133.609242,6.71837428 135.662737,8.76876522 135.662737,11.3194786 L135.662737,11.3194786 Z" id="Fill-9" fill="#000000"></path>
                    <path d="M159.589326,11.3194786 L159.589326,27.2366754 L155.76763,27.2366754 L155.76763,11.3194786 C155.76763,10.8928077 155.414893,10.5400705 154.990479,10.5400705 L143.314877,10.5400705 C142.889617,10.5400705 142.53688,10.8928077 142.53688,11.3194786 L142.53688,27.2366754 L138.715184,27.2366754 L138.715184,6.71837428 L154.990479,6.71837428 C157.535831,6.71837428 159.589326,8.76876522 159.589326,11.3194786" id="Fill-11" fill="#000000"></path>
                    <path d="M183.55006,23.4183655 L183.55006,27.2366754 L167.275893,27.2366754 C164.729413,27.2366754 162.674789,25.1865666 162.674789,22.6389573 L162.674789,11.3194786 C162.674789,8.76876522 164.729413,6.71837428 167.275893,6.71837428 L183.479513,6.71837428 L183.479513,10.5400705 L167.275893,10.5400705 C166.852609,10.5400705 166.496485,10.8928077 166.496485,11.3194786 L166.496485,22.6389573 C166.496485,23.0644995 166.852609,23.4183655 167.275893,23.4183655 L183.55006,23.4183655 Z" id="Fill-13" fill="#000000"></path>
                    <path d="M203.797177,15.0683699 L203.797177,11.3194786 C203.797177,10.8928077 203.44444,10.5400705 203.021155,10.5400705 L191.345553,10.5400705 C190.923397,10.5400705 190.566427,10.8928077 190.566427,11.3194786 L190.566427,15.0683699 L203.797177,15.0683699 Z M207.620002,11.3194786 L207.620002,18.8878085 L190.566427,18.8878085 L190.566427,22.6389573 C190.566427,23.0644995 190.923397,23.4183655 191.345553,23.4183655 L207.620002,23.4183655 L207.620002,27.2366754 L191.345553,27.2366754 C188.799354,27.2366754 186.744731,25.1865666 186.744731,22.6389573 L186.744731,11.3194786 C186.744731,8.76876522 188.799354,6.71837428 191.345553,6.71837428 L203.021155,6.71837428 C205.565378,6.71837428 207.620002,8.76876522 207.620002,11.3194786 L207.620002,11.3194786 Z" id="Fill-15" fill="#000000"></path>
                    <path d="M5.81028757,37.5354736 L5.81028757,38.5033845 L1.67987576,38.5033845 C1.03168584,38.5033845 0.513585399,37.9810512 0.513585399,37.3359654 L0.513585399,34.4666597 C0.513585399,33.8164945 1.03168584,33.2972653 1.67987576,33.2972653 L5.79053428,33.2972653 L5.79053428,34.266305 L1.67987576,34.266305 C1.57179707,34.266305 1.4826251,34.3566057 1.4826251,34.4666597 L1.4826251,37.3359654 C1.4826251,37.4451728 1.57179707,37.5354736 1.67987576,37.5354736 L5.81028757,37.5354736 Z" id="Fill-17" fill="#000000"></path>
                    <path d="M20.6969272,33.2972653 L20.6969272,34.266305 L17.786704,34.266305 C17.6797541,34.266305 17.5894534,34.3566057 17.5894534,34.4666597 L17.5894534,38.5033845 L16.6206958,38.5033845 L16.6206958,34.4666597 C16.6206958,33.8164945 17.1407716,33.2972653 17.786704,33.2972653 L20.6969272,33.2972653 Z" id="Fill-19" fill="#000000"></path>
                    <path d="M35.4467048,36.3892187 L32.0903396,36.3892187 L32.0903396,37.3359654 C32.0903396,37.4451728 32.1795116,37.5354736 32.2875902,37.5354736 L35.4467048,37.5354736 L35.4467048,36.3892187 Z M36.418002,34.4666597 L36.418002,38.5033845 L32.2875902,38.5033845 C31.6416578,38.5033845 31.1212999,37.9810512 31.1212999,37.3359654 L31.1212999,35.4159461 L35.4467048,35.4159461 L35.4467048,34.4666597 C35.4467048,34.3566057 35.3586616,34.266305 35.2494542,34.266305 L31.1212999,34.266305 L31.1212999,33.2972653 L35.2494542,33.2972653 C35.8965153,33.2972653 36.418002,33.8164945 36.418002,34.4666597 L36.418002,34.4666597 Z" id="Fill-21" fill="#000000"></path>
                    <path d="M48.1895487,32.7582828 L48.1895487,33.2972653 L50.3245966,33.2972653 L50.3245966,34.266305 L48.1895487,34.266305 L48.1895487,38.5022558 L47.2182515,38.5022558 L47.2182515,32.7582828 C47.2182515,32.1146079 47.7419957,31.5897349 48.3867994,31.5897349 L50.3245966,31.5897349 L50.3245966,32.5630075 L48.3867994,32.5630075 C48.2798494,32.5630075 48.1895487,32.6524616 48.1895487,32.7582828" id="Fill-23" fill="#000000"></path>
                    <path d="M61.7024885,34.266305 L61.7024885,37.3359654 C61.7024885,37.4451728 61.7919427,37.5354736 61.8988926,37.5354736 L63.8355611,37.5354736 L63.8355611,38.5022558 L61.8988926,38.5022558 C61.2518314,38.5022558 60.7314735,37.9810512 60.7314735,37.3359654 L60.7314735,31.5908637 L61.7024885,31.5908637 L61.7024885,33.2972653 L63.8355611,33.2972653 L63.8355611,34.266305 L61.7024885,34.266305 Z" id="Fill-25" fill="#000000"></path>
                    <path d="M91.4009875,36.3892187 L88.0409538,36.3892187 L88.0409538,37.3359654 C88.0409538,37.4451728 88.1326655,37.5354736 88.2384867,37.5354736 L91.4009875,37.5354736 L91.4009875,36.3892187 Z M92.3686163,34.4666597 L92.3686163,38.5022558 L88.2384867,38.5022558 C87.5945296,38.5022558 87.0710675,37.9810512 87.0710675,37.3359654 L87.0710675,35.4159461 L91.4009875,35.4159461 L91.4009875,34.4666597 C91.4009875,34.3566057 91.3092758,34.266305 91.2023259,34.266305 L87.0710675,34.266305 L87.0710675,33.2972653 L91.2023259,33.2972653 C91.8485405,33.2972653 92.3686163,33.8164945 92.3686163,34.4666597 L92.3686163,34.4666597 Z" id="Fill-27" fill="#000000"></path>
                    <path d="M104.141292,34.266305 L104.141292,37.3359654 C104.141292,37.4451728 104.228488,37.5354736 104.337414,37.5354736 L106.27634,37.5354736 L106.27634,38.5022558 L104.337414,38.5022558 C103.688377,38.5022558 103.170277,37.9810512 103.170277,37.3359654 L103.170277,31.5908637 L104.141292,31.5908637 L104.141292,33.2972653 L106.27634,33.2972653 L106.27634,34.266305 L104.141292,34.266305 Z" id="Fill-29" fill="#000000"></path>
                    <path d="M134.475564,34.4666597 L134.475564,38.5022558 L133.508782,38.5022558 L133.508782,34.4666597 C133.508782,34.3566057 133.417353,34.266305 133.308145,34.266305 L130.34741,34.266305 C130.238485,34.266305 130.147902,34.3566057 130.147902,34.4666597 L130.147902,38.5022558 L129.180273,38.5022558 L129.180273,31.5908637 L130.147902,31.5908637 L130.147902,33.2972653 L133.308145,33.2972653 C133.948716,33.2972653 134.475564,33.8164945 134.475564,34.4666597" id="Fill-31" fill="#000000"></path>
                    <path d="M152.624036,35.4159461 L152.624036,34.4666597 C152.624036,34.3566057 152.533453,34.266305 152.427632,34.266305 L149.460406,34.266305 C149.351199,34.266305 149.266259,34.3566057 149.266259,34.4666597 L149.266259,35.4159461 L152.624036,35.4159461 Z M153.591664,34.4666597 L153.591664,36.3892187 L149.266259,36.3892187 L149.266259,37.3359654 C149.266259,37.4451728 149.351199,37.5354736 149.460406,37.5354736 L153.591664,37.5354736 L153.591664,38.5022558 L149.460406,38.5022558 C148.814474,38.5022558 148.296373,37.9810512 148.296373,37.3359654 L148.296373,34.4666597 C148.296373,33.8164945 148.814474,33.2972653 149.460406,33.2972653 L152.427632,33.2972653 C153.072435,33.2972653 153.591664,33.8164945 153.591664,34.4666597 L153.591664,34.4666597 Z" id="Fill-33" fill="#000000"></path>
                    <path d="M171.991285,36.3892187 L168.6273,36.3892187 L168.6273,37.3359654 C168.6273,37.4451728 168.71873,37.5354736 168.824551,37.5354736 L171.991285,37.5354736 L171.991285,36.3892187 Z M172.955809,34.4666597 L172.955809,38.5022558 L168.824551,38.5022558 C168.185109,38.5022558 167.660518,37.9810512 167.660518,37.3359654 L167.660518,35.4159461 L171.991285,35.4159461 L171.991285,34.4666597 C171.991285,34.3566057 171.900984,34.266305 171.788672,34.266305 L167.660518,34.266305 L167.660518,33.2972653 L171.788672,33.2972653 C172.441095,33.2972653 172.955809,33.8164945 172.955809,34.4666597 L172.955809,34.4666597 Z" id="Fill-35" fill="#000000"></path>
                    <path d="M190.934402,33.2972653 L190.934402,34.266305 L188.02559,34.266305 C187.912996,34.266305 187.828339,34.3566057 187.828339,34.4666597 L187.828339,38.5022558 L186.858171,38.5022558 L186.858171,34.4666597 C186.858171,33.8164945 187.376271,33.2972653 188.02559,33.2972653 L190.934402,33.2972653 Z" id="Fill-37" fill="#000000"></path>
                    <path d="M205.576383,34.266305 L205.576383,37.3359654 C205.576383,37.4451728 205.664709,37.5354736 205.772505,37.5354736 L207.711431,37.5354736 L207.711431,38.5022558 L205.772505,38.5022558 C205.126573,38.5022558 204.606497,37.9810512 204.606497,37.3359654 L204.606497,31.5908637 L205.576383,31.5908637 L205.576383,33.2972653 L207.711431,33.2972653 L207.711431,34.266305 L205.576383,34.266305 Z" id="Fill-39" fill="#000000"></path>
                    <path d="M39.5573916,7.5659595 C40.285159,9.42107512 40.7727829,11.0622909 41.0707754,12.4994834 C41.3648171,13.9465526 41.467252,15.1927027 41.4229482,16.2701033 C41.3704609,17.3480682 41.1701062,18.2550262 40.8563111,19.0158098 C40.6988492,19.3973304 40.5151437,19.7432951 40.3082986,20.0562435 C40.0969384,20.3663701 39.8661072,20.6446092 39.6183446,20.8906787 C39.3700176,21.1356194 39.1041948,21.3526234 38.8282132,21.540844 C38.5474343,21.728218 38.2567789,21.8882196 37.9593508,22.0233885 C37.3520784,22.3010632 36.7109433,22.4644511 36.0915367,22.5553162 C35.4712836,22.6467457 34.8705015,22.6625483 34.3399847,22.6411019 C33.8156761,22.6216308 33.3565533,22.5677326 33.023005,22.5169384 C32.6843773,22.4621936 32.4744281,22.4111173 32.4383078,22.4051913 C33.9641079,23.4374415 35.3970676,24.0994587 36.7106611,24.450785 C38.026512,24.7998537 39.2269473,24.8328699 40.2879809,24.6141729 C41.3481679,24.3940648 42.2669778,23.9197038 43.0257862,23.2472456 C43.785441,22.5770448 44.3853765,21.7079003 44.796527,20.6999184 C45.0270761,20.1346923 45.2042913,19.5279843 45.3180137,18.8865669 C45.4294787,18.2457139 45.4814016,17.5712803 45.4723715,16.874836 C45.4548758,16.1735944 45.3755804,15.4551392 45.2302527,14.7174951 C45.0818209,13.9832373 44.8639704,13.2371275 44.5733149,12.4867849 C43.9589878,10.8957989 43.1716783,9.41543132 42.3352678,8.08744622 C41.4946244,6.76115425 40.6091129,5.58583382 39.7879406,4.60437776 C38.9653574,3.620382 38.2113463,2.83109719 37.6478133,2.26982171 C37.082305,1.70826405 36.7086857,1.37471573 36.6378561,1.31714902 C37.8738473,3.63533806 38.8318816,5.70943294 39.5573916,7.5659595" id="Fill-41" fill="#CC0000"></path>
                    <path d="M32.9358084,6.15207583 C32.334462,6.2135932 31.7150554,6.34876211 31.0970598,6.55391408 C30.4810395,6.75793729 29.8599398,7.03335451 29.2509742,7.37282882 C28.6456772,7.71907568 28.0448951,8.12853305 27.4703567,8.60571597 C26.8921499,9.08543859 26.3365182,9.63062925 25.8141849,10.2435454 C24.7046147,11.5393609 23.7756459,12.9359181 23.0052678,14.3019989 C22.2348897,15.6669508 21.6205626,17.0070701 21.1464838,18.1959356 C20.6693008,19.3873409 20.3309553,20.4229774 20.1035103,21.185172 C19.8769119,21.9484953 19.7662935,22.4380946 19.7442827,22.5252912 C21.1975601,20.340578 22.5701312,18.511706 23.8608672,16.9909853 C25.1493458,15.4730864 26.3593756,14.2647498 27.4872881,13.3202606 C28.6188691,12.3743605 29.6680507,11.6940009 30.639348,11.2283878 C31.6171355,10.7579774 32.5091374,10.5051354 33.326359,10.4185031 C33.7377917,10.3758925 34.129189,10.3764568 34.5002685,10.4131415 C34.8752987,10.4455933 35.2283182,10.5198092 35.5632774,10.6182935 C35.8979545,10.7221393 36.2114673,10.8530754 36.512846,11.0099729 C36.8063234,11.166306 37.0865379,11.3457787 37.3447415,11.5416184 C37.8797733,11.9476895 38.3301482,12.4347491 38.6998168,12.9359181 C39.076258,13.4390625 39.3745326,13.9622424 39.6090323,14.4371678 C39.8401457,14.9098356 40.0088952,15.3427148 40.124593,15.6587673 C40.2352114,15.9796171 40.2916494,16.1884375 40.302937,16.2316126 C40.4877713,14.3931462 40.3881583,12.8162697 40.0723879,11.4902599 C39.7546422,10.1690473 39.2179173,9.09757275 38.5257057,8.26991013 C37.8298257,7.43773247 36.9739441,6.8513421 36.0226824,6.50114459 C35.193891,6.19891933 34.288344,6.07024079 33.3489342,6.11934182 C33.21179,6.12639656 33.0743636,6.13683758 32.9358084,6.15207583" id="Fill-43" fill="#FF6600"></path>
                    <path d="M27.1057393,14.9140403 C26.1211792,15.8497816 25.4580332,16.8535306 25.0872358,17.8663098 C24.7195425,18.8869902 24.6385541,19.9181116 24.8112542,20.9190388 C24.9828256,21.917144 25.4092144,22.8827975 26.0483742,23.7635118 C26.4076018,24.2553686 26.8334262,24.7257789 27.317946,25.158658 C27.8047234,25.5926659 28.351325,25.9877316 28.9532358,26.3452661 C29.5537356,26.700543 30.21152,27.0106696 30.9130438,27.2728239 C31.6148498,27.5349782 32.361524,27.7409767 33.1572991,27.8857401 C34.8340708,28.2003817 36.5066096,28.3101535 38.0721985,28.2918112 C39.6425847,28.2774195 41.1102537,28.1360424 42.3798255,27.9557231 C43.6457289,27.7734285 44.7152281,27.5468302 45.4864528,27.3625602 C46.2604994,27.1771615 46.740222,27.0326804 46.8245967,27.0061545 C44.2053112,26.8351475 41.9367876,26.5639632 39.9778261,26.2050178 C38.0143496,25.8486121 36.3655147,25.4050097 34.984478,24.8987613 C33.5997727,24.392795 32.4839943,23.8267223 31.592839,23.2177567 C30.7033768,22.608509 30.0326117,21.9603191 29.5509138,21.29548 C29.3079484,20.9613673 29.114084,20.6201998 28.9554933,20.2807255 C28.8039574,19.9373005 28.6902349,19.5986728 28.6075533,19.2563766 C28.5285402,18.9180311 28.4842364,18.5794033 28.473231,18.2407756 C28.4591215,17.9060985 28.4729488,17.5765009 28.5138663,17.2531114 C28.5993698,16.5874257 28.7983136,15.9547562 29.0435365,15.3788068 C29.2921457,14.8028575 29.5971929,14.2850393 29.8898237,13.8451054 C30.184712,13.4068647 30.4711346,13.0473549 30.6929358,12.7905622 C30.9161479,12.5326407 31.0671194,12.3774363 31.0970316,12.3478064 C29.4137695,13.1063325 28.0959432,13.9791455 27.1057393,14.9140403" id="Fill-45" fill="#FFCC33"></path>
                </g>
            </g>
        </g>
    </g>
</svg>