<svg id="Logo_SCGC" data-name="Logo SCGC" xmlns="http://www.w3.org/2000/svg" viewBox="0 0 609.14 278.51"><defs><style>.cls-1{font-size:53.68px;font-family:Cooper Hewitt;font-weight:700;}.cls-1,.cls-3{fill:#fff;}.cls-2{letter-spacing:-1px;}.cls-4{fill:#9b9b9b;}</style></defs><title>scgc-logo</title><text class="cls-1" transform="translate(0 234.98)">S<tspan x="33.87" y="0">o</tspan><tspan x="63.07" y="0">ft</tspan><tspan x="108.27" y="0">w</tspan><tspan x="148.52" y="0">a</tspan><tspan class="cls-2" x="177.99" y="0">r</tspan><tspan x="197.37" y="0">e C</tspan><tspan class="cls-2" x="272.84" y="0">r</tspan><tspan x="292.22" y="0">a</tspan><tspan x="321.04" y="0">ftsmanship</tspan></text><path class="cls-3" d="M1435,823V821.7c0-8.95,3.86-12.59,10.76-12.59,6.49,0,9.54,3.15,9.54,8.78v0.83h-1.71c0-6-2.35-8.35-7.63-8.35h-0.24c-5.68,0-9,3.21-9,11.33V823c0,8.12,3.17,11.33,9.42,11.33h0.24c3.65,0,6.13-1.19,7.31-2.35v-7.75h-5.89V823h7.51v9.68c-1.46,1.39-4.3,2.95-9.13,2.95C1438.9,835.62,1435,832,1435,823Z" transform="translate(-1371.46 -557.11)"/><path class="cls-3" d="M1483.54,835.29h-1.62V809.44h8.2c4.3,0,9.25,1.49,9.25,7.12v0.66c0,4.08-2.6,6-5.64,6.73l5.64,11.33h-1.83l-5.36-11.07a14.52,14.52,0,0,1-2.07.13h-6.58v10.93Zm6.58-12.19c3.08,0,7.55-.93,7.55-5.93v-0.53c0-5-4.46-5.93-7.55-5.93h-6.58v12.39h6.58Z" transform="translate(-1371.46 -557.11)"/><path class="cls-3" d="M1535.08,809.11l9.58,26.18h-1.79l-2.56-7h-12.95l-2.52,7h-1.79l9.58-26.18h2.44ZM1527.82,827h12.05l-6-16.6Z" transform="translate(-1371.46 -557.11)"/><path class="cls-3" d="M1589.47,835.29h-1.83L1571,811.43l0.12,6.3v17.56h-1.54V809.44h1.83L1588,833.3l-0.12-6.3V809.44h1.54v25.84Z" transform="translate(-1371.46 -557.11)"/><path class="cls-3" d="M1654.28,834.36h0.24c5.32,0,7.59-2.55,7.59-7.36h1.7v0.33c0,5.14-3,8.28-9.5,8.28-6.9,0-10.35-3.65-10.35-12.59V821.7c0-8.95,3.45-12.59,10.35-12.59,6.49,0,9.5,3.15,9.5,8.78v0.83h-1.7c0-6-2.35-8.35-7.59-8.35h-0.24c-5.64,0-8.61,3.21-8.61,11.33V823C1645.68,831.15,1648.56,834.36,1654.28,834.36Z" transform="translate(-1371.46 -557.11)"/><path class="cls-3" d="M1699.25,809.11l9.58,26.18H1707l-2.56-7h-12.95l-2.52,7h-1.79l9.58-26.18h2.44ZM1692,827H1704l-6-16.6Z" transform="translate(-1371.46 -557.11)"/><path class="cls-3" d="M1753.63,835.29h-1.83l-16.64-23.86,0.12,6.3v17.56h-1.54V809.44h1.83l16.64,23.86-0.12-6.3V809.44h1.54v25.84Z" transform="translate(-1371.46 -557.11)"/><path class="cls-3" d="M1790.57,809.11l9.58,26.18h-1.79l-2.56-7h-12.95l-2.52,7h-1.79l9.58-26.18h2.44ZM1783.3,827h12.06l-6-16.6Z" transform="translate(-1371.46 -557.11)"/><path class="cls-3" d="M1826.69,835.29h-1.62V809.44h8.2c4.3,0,9.25,1.49,9.25,7.12v0.66c0,4.08-2.6,6-5.64,6.73l5.64,11.33h-1.83l-5.36-11.07a14.53,14.53,0,0,1-2.07.13h-6.57v10.93Zm6.57-12.19c3.08,0,7.55-.93,7.55-5.93v-0.53c0-5-4.47-5.93-7.55-5.93h-6.57v12.39h6.57Z" transform="translate(-1371.46 -557.11)"/><path class="cls-3" d="M1870.31,835.29h-1.62V809.44h1.62v25.84Z" transform="translate(-1371.46 -557.11)"/><path class="cls-3" d="M1907.45,809.11l9.58,26.18h-1.79l-2.56-7h-12.95l-2.52,7h-1.79l9.58-26.18h2.44ZM1900.18,827h12.06l-6-16.6Z" transform="translate(-1371.46 -557.11)"/><polygon class="cls-3" points="94.08 132.95 187.37 104.92 187.55 104.87 187.74 104.92 204.17 109.59 204.31 109.63 204.43 109.73 229.68 129.41 229.29 129.23 255.55 134.62 254.44 136.24 243.61 120 240.33 115.09 245.2 118.45 265 132.12 264.01 131.94 409.26 95.02 408.83 98.18 372.21 77.67 363.1 72.56 373.39 74.39 425.86 83.7 425.01 87.25 402.44 80.52 395.04 78.31 402.64 76.91 472.89 63.95 471.96 64.4 501.98 37.92 501.37 38.93 506.1 20.06 506.64 21.98 496.74 12.24 497.95 12.8 437.34 6.7 438.53 6.43 414.09 21.34 400.99 29.33 411.76 18.4 428.82 1.09 430.34 4.24 383.31 9.09 383.68 9.02 346.94 20.74 347.44 20.49 327.09 35.37 319.64 40.81 324.61 33.05 335.13 16.6 337.63 18.85 306.67 43.56 304.47 41.32 323.59 18.72 325.06 21.09 243.31 40.32 243.88 40.01 214.15 70.02 209.37 74.86 212.53 68.85 224.95 45.28 226.25 46.34 195.42 71.18 195.61 70.92 183.83 101.64 183.75 101.84 183.55 101.9 126.69 118.75 183.3 101.08 183.02 101.34 194.44 70.48 194.5 70.33 194.63 70.22 225.17 45.02 228.37 42.37 226.47 46.08 214.33 69.78 212.71 68.61 242.21 38.37 242.44 38.14 242.77 38.06 324.38 18.24 328.69 17.19 325.84 20.61 306.88 43.35 304.69 41.11 335.5 16.19 343.6 9.63 338 18.43 327.52 34.91 325.05 32.58 345.36 17.65 345.59 17.48 345.86 17.4 382.58 5.58 382.75 5.52 382.94 5.5 429.95 0.54 435.1 0 431.47 3.7 414.45 21.05 412.12 18.11 436.53 3.14 437.07 2.81 437.72 2.87 498.34 8.83 499.04 8.89 499.54 9.39 509.46 19.11 510.28 19.92 510 21.04 505.23 39.9 505.08 40.5 504.61 40.91 474.53 67.32 474.12 67.67 473.6 67.77 403.31 80.57 403.51 76.96 426.06 83.75 425.21 87.3 372.77 77.87 373.94 74.59 410.51 95.19 414.29 97.31 410.09 98.35 264.61 134.31 264.06 134.44 263.61 134.12 243.9 120.31 245.49 118.75 256.21 135.07 257.64 137.24 255.11 136.69 228.9 131.07 228.68 131.02 228.51 130.89 203.5 110.91 203.75 111.04 187.37 106.17 187.74 106.17 94.08 132.95"/><rect class="cls-3" x="1550.19" y="619.28" width="322.97" height="1.34" transform="translate(-1470.09 -129.46) rotate(-13.85)"/><path class="cls-4" d="M1693.92,654.28l-22.51,6.19-21.23-15.27-73,17.08,0.23,1,72.58-17,21.25,15.28,22.58-6.21,13.37,7.28-23.08,6.95-0.08-.1a2.92,2.92,0,0,0-4,0,2.86,2.86,0,1,0,4.68.94l25.12-7.56Z" transform="translate(-1371.46 -557.11)"/><path class="cls-4" d="M1643,662.07l-14.8-7.24-12.65,3.57-29.89,6.47,0.28,1.31,29.62-6.41,17.93,13.14,20.64-4.43,11.61,6.83a2.84,2.84,0,0,0,2.72,3.67h0a2.85,2.85,0,0,0,2-4.89,2.92,2.92,0,0,0-4,0v0l-12-7.09-20.57,4.41-16.57-12.14,10.84-3.06,14.74,7.21,10-1.91,21.52,13.38,0.71-1.14-22-13.66Z" transform="translate(-1371.46 -557.11)"/><path class="cls-4" d="M1861,593.68l-43.12,10.5-0.13,0,0,0.08-71.91,17.52-6.65-2.3,127.72-30.32-0.31-1.31-215,51,0,0.16-84.09,20.52,0.24,1L1651.62,640l25.22,15.82,20.68-6.58,19.3,12.26,47.62-9.49-0.2-1L1717,660.47l-19.36-12.29L1677,654.76l-23.79-14.92,11.64-2.76,20.6,10.05,23.3-7,14.57,10a2.84,2.84,0,0,0,2.73,3.64h0a2.85,2.85,0,0,0,2-4.89,2.92,2.92,0,0,0-4,0,2.81,2.81,0,0,0-.24.3l-13.61-9.31,9.92-3,11.57,7.7a2.85,2.85,0,1,0,4.67-1.06,2.92,2.92,0,0,0-3.93-.05l-10.65-7.09,4.46-1.34,18.07,12a2.85,2.85,0,1,0,4.71-1.16,2.92,2.92,0,0,0-4,0l-18.55-12.31-17.79,5.33,0,0.16-23.16,7-19.15-9.34,70.35-16.7,34.18,11.81,69.42-13.07-22.42-5.07-0.14,0-36.54,6.77a2.83,2.83,0,0,0-.46-0.62,2.92,2.92,0,0,0-4,0,2.85,2.85,0,0,0,2,4.85h0a2.85,2.85,0,0,0,2.85-2.88s0-.06,0-0.09l36.14-6.7,16,3.61L1771,630.44l-23.44-8.1,69.81-17,0,0.08,17.9,5.51,23.32-7.62-0.42-1.28-22.92,7.49-15.48-4.76,41.48-10.1Z" transform="translate(-1371.46 -557.11)"/><path class="cls-4" d="M1864,576.42l-99.32,24,32.92-21.4,11.2-.54a2.85,2.85,0,1,0,4.77-2.67,2.92,2.92,0,0,0-4,0,2.82,2.82,0,0,0-.78,1.63l-11.48.56-35.54,23.1-198.12,47.79,0.31,1.31,300.37-72.46Z" transform="translate(-1371.46 -557.11)"/><path class="cls-4" d="M1572.92,644l7.89-2.7,177.55-43.16,39-23.79,8.85-1.22,9.37,0.93,4.75,4.68,6.35,0.79a2.84,2.84,0,0,0,4.86,1.68,2.86,2.86,0,0,0,0-4,2.92,2.92,0,0,0-4,0,2.83,2.83,0,0,0-.63,1l-5.89-.73-4.77-4.69-8-.79,6.08-3.76,33,2.74a2.85,2.85,0,1,0,4.69-1.12,2.92,2.92,0,0,0-3.81-.15l-34.19-2.84-7.93,5-9.07,1.24-38.94,23.8-91,22.13,10.42-10.6,24.19-4.92,0,0.16,54.68-13.78a2.85,2.85,0,1,0,4.59-3.21,2.92,2.92,0,0,0-4,0,2.83,2.83,0,0,0-.8,2.2l-53.07,13.37,8.52-7.69,19.7-4.69,0.09,0.32,44.18-12.92-0.38-1.29-42.36,12.39,7.4-7.53,29.63-9.28a2.85,2.85,0,1,0,4.6-3.2,2.92,2.92,0,0,0-4,0,2.85,2.85,0,0,0-.77,2.53l-29.71,9.3-8.44,8.53-0.5.15,0.08,0.28-0.06.06-18.4,4.38,18-16.22,23.48-7.26-0.2-.64-23.55,7.29-28.66,25.82-0.23.06,0,0.12-0.06.06-23.11,4.7,1.76-1.79,15.29-3.65,0.12,0L1719.88,581l-0.66-.76-24.35,21-15.31,3.66-0.14,0-14.35,14.6L1613,632.12l7.3-7.27L1658.44,614l0.14,0,22.52-25a2.85,2.85,0,0,0,1,.18h0a2.85,2.85,0,0,0,2-4.89,2.92,2.92,0,0,0-4,0,2.86,2.86,0,0,0,0,4l0.15,0.12L1658,613l-38.12,10.9-8.78,8.66-24.36,5.92,9.3-9.46,9.57-2.65,0.09,0,9.81-10,17.48-4.75,0,0.16,13-3.3,3.91,3.84-30.73,7.16,0.23,1,32.52-7.57-4.94-4.85,12.69-12.9a2.83,2.83,0,0,0,3.49-.44,2.86,2.86,0,0,0,0-4,2.92,2.92,0,0,0-4,0,2.85,2.85,0,0,0-.38,3.5l-13,13.26,0.06,0.06-11.53,2.93,13.64-13.88a2.83,2.83,0,0,0,1.63.52h0a2.85,2.85,0,0,0,2-4.89,2.92,2.92,0,0,0-4,0,2.85,2.85,0,0,0-.09,3.88L1633,610.78l-0.18,0,0,0.11-0.08.08-17.48,4.75-0.09,0-9.81,10-9.57,2.65-0.09,0-10.18,10.36-2.76.67,12.56-12.78,8.26-2.3,19-19.35a2.85,2.85,0,0,0,3.46-4.48,2.92,2.92,0,0,0-4,0,2.85,2.85,0,0,0-.38,3.5l-18.77,19.09-8.26,2.3-14.35,14.6-6.21,2.13,14.33-27.57-1.19-.62-15,28.83-4.44,1.75,0.49,1.25Z" transform="translate(-1371.46 -557.11)"/></svg>